<svg width="31" height="29" viewBox="0 0 31 29" fill="none" xmlns="http://www.w3.org/2000/svg">
<path d="M18.9199 1L18.8828 2.03613L18.6191 9.35449L25.4346 6.82129L26.4121 6.45801L26.7344 7.44922L28.4902 12.8564L28.8086 13.8369L27.8193 14.126L20.8154 16.168L25.3037 21.8506L25.9502 22.668L25.1064 23.2803L20.5068 26.6152L19.6689 27.2227L19.0908 26.3652L15.0352 20.3564L10.9502 26.3682L10.3711 27.2207L9.53613 26.6152L4.93652 23.2803L4.09082 22.666L4.74121 21.8486L9.25586 16.167L2.25879 14.126L1.26953 13.8369L1.58789 12.8564L3.34375 7.44922L3.66602 6.45801L4.64355 6.82129L11.458 9.35449L11.1953 2.03613L11.1582 1H18.9199Z" fill="#DBEF72" stroke="#1A443D" stroke-width="2"/>
</svg>
