<svg width="60" height="60" viewBox="0 0 60 60" fill="none" xmlns="http://www.w3.org/2000/svg">
<rect width="60" height="60" rx="10" fill="#1A443D"/>
<path d="M23.483 29.3832H15.6663C15.7997 21.5998 17.333 20.3165 22.1163 17.4831C22.6663 17.1498 22.8497 16.4498 22.5163 15.8831C22.1997 15.3331 21.483 15.1498 20.933 15.4831C15.2997 18.8165 13.333 20.8498 13.333 30.5332V39.5165C13.333 42.3665 15.6497 44.6665 18.483 44.6665H23.483C26.4163 44.6665 28.633 42.4498 28.633 39.5165V34.5165C28.633 31.5998 26.4163 29.3832 23.483 29.3832Z" fill="white"/>
<path d="M41.5153 29.3832H33.6986C33.832 21.5998 35.3653 20.3165 40.1486 17.4831C40.6986 17.1498 40.882 16.4498 40.5486 15.8831C40.2153 15.3331 39.5153 15.1498 38.9486 15.4831C33.3153 18.8165 31.3486 20.8498 31.3486 30.5498V39.5332C31.3486 42.3832 33.6653 44.6832 36.4986 44.6832H41.4986C44.432 44.6832 46.6486 42.4665 46.6486 39.5332V34.5332C46.6653 31.5998 44.4486 29.3832 41.5153 29.3832Z" fill="white"/>
</svg>
