<svg width="48" height="48" viewBox="0 0 48 48" fill="none" xmlns="http://www.w3.org/2000/svg">
<rect x="1.5" y="1.5" width="45" height="45" rx="22.5" fill="#DBEF72"/>
<rect x="1.5" y="1.5" width="45" height="45" rx="22.5" stroke="#1A443D" stroke-width="3" stroke-linejoin="round"/>
<path d="M32 31.0002C32.5522 31.0002 32.9999 31.448 33 32.0002C33 32.5524 32.5523 33.0002 32 33.0002H16C15.4477 33.0002 15 32.5524 15 32.0002C15.0001 31.448 15.4478 31.0002 16 31.0002H32ZM24.0391 16.3448C25.8602 14.5517 28.8069 14.5517 30.6279 16.3448C32.4576 18.1466 32.4575 21.0752 30.6279 22.8771L25.4033 28.0216C24.6248 28.7883 23.3752 28.7883 22.5967 28.0216L17.3721 22.8771C15.5425 21.0752 15.5424 18.1466 17.3721 16.3448C19.1931 14.5517 22.1398 14.5517 23.9609 16.3448L24 16.3829L24.0391 16.3448Z" fill="#1A443D"/>
</svg>
