<svg width="48" height="48" viewBox="0 0 48 48" fill="none" xmlns="http://www.w3.org/2000/svg">
<rect x="1.5" y="1.5" width="45" height="45" rx="22.5" fill="#1A443D"/>
<rect x="1.5" y="1.5" width="45" height="45" rx="22.5" stroke="#1A443D" stroke-width="3" stroke-linejoin="round"/>
<path d="M32 30.9997C32.5522 30.9997 32.9999 31.4475 33 31.9997C33 32.5519 32.5523 32.9997 32 32.9997H16C15.4477 32.9997 15 32.5519 15 31.9997C15.0001 31.4475 15.4478 30.9997 16 30.9997H32ZM24.0391 16.3444C25.8602 14.5513 28.8069 14.5512 30.6279 16.3444C32.4576 18.1462 32.4575 21.0747 30.6279 22.8766L25.4033 28.0211C24.6248 28.7878 23.3752 28.7878 22.5967 28.0211L17.3721 22.8766C15.5425 21.0747 15.5424 18.1462 17.3721 16.3444C19.1931 14.5512 22.1398 14.5513 23.9609 16.3444L24 16.3824L24.0391 16.3444Z" fill="white"/>
</svg>
