<svg width="38" height="38" viewBox="0 0 38 38" fill="none" xmlns="http://www.w3.org/2000/svg">
<rect x="1.5" y="1.5" width="34.7192" height="34.9033" rx="17.3596" fill="white"/>
<rect x="1.5" y="1.5" width="34.7192" height="34.9033" rx="17.3596" stroke="white" stroke-width="3" stroke-linejoin="round"/>
<path fill-rule="evenodd" clip-rule="evenodd" d="M15.5658 12.0641C15.9447 11.8968 16.3875 12.0683 16.5548 12.4472C16.7221 12.8261 16.5506 13.269 16.1717 13.4363C15.8157 13.5935 15.4989 13.8501 15.2659 14.1995C15.0361 14.5441 14.5704 14.6371 14.2258 14.4073C13.8812 14.1775 13.7881 13.7118 14.018 13.3672C14.4139 12.7736 14.9565 12.3331 15.5658 12.0641ZM14.3673 24.4692L13.9208 23.961C13.4589 23.4355 13.0964 22.8303 12.8509 22.1751L12.0757 20.1055C11.8938 19.6201 12.0473 19.0729 12.455 18.7528C13.0666 18.2728 13.9667 18.499 14.2786 19.2111L14.8987 20.6265L14.8828 20.6859C15.2296 20.7788 16.0394 21.1598 16.4297 21.8359C16.6023 22.1349 16.9845 22.2373 17.2835 22.0647C17.5824 21.8921 17.6848 21.5099 17.5122 21.2109C16.8917 20.1362 15.7228 19.6169 15.2065 19.4785L16.5622 14.4188C16.6899 13.9421 17.1799 13.6592 17.6566 13.787C18.1333 13.9147 18.4161 14.4047 18.2884 14.8813L17.3634 18.3337C17.2995 18.572 17.441 18.817 17.6793 18.8808C17.9176 18.9447 18.1626 18.8033 18.2265 18.5649L19.4984 13.818C19.6261 13.3413 20.1161 13.0584 20.5928 13.1861C21.0694 13.3139 21.3523 13.8038 21.2246 14.2805L19.9526 19.0274C19.8888 19.2658 20.0302 19.5108 20.2685 19.5746C20.5069 19.6385 20.7519 19.497 20.8157 19.2587L21.4977 16.7137C21.6314 16.2144 22.1474 15.9206 22.6451 16.0605C23.1342 16.1979 23.4219 16.7032 23.2904 17.194L21.3293 24.5131C21.1972 25.0061 20.8746 25.4265 20.4326 25.6817C20.0393 25.8878 19.5873 25.9527 19.152 25.8656L15.5121 25.1376C15.0667 25.0485 14.6638 24.8133 14.3673 24.4692ZM23.9806 13.8245C24.315 13.58 24.7842 13.6528 25.0287 13.9872C25.4219 14.5248 25.6716 15.1775 25.7176 15.8896C25.7444 16.303 25.4309 16.6597 25.0176 16.6864C24.6042 16.7132 24.2475 16.3998 24.2208 15.9864C24.1937 15.5674 24.0476 15.1867 23.8179 14.8726C23.5734 14.5382 23.6463 14.069 23.9806 13.8245Z" fill="#1A443D"/>
</svg>
